<?xml version="1.0" encoding="utf-8"?>
<!-- Generator: Adobe Illustrator 19.1.0, SVG Export Plug-In . SVG Version: 6.00 Build 0)  -->
<!DOCTYPE svg PUBLIC "-//W3C//DTD SVG 1.1//EN" "http://www.w3.org/Graphics/SVG/1.1/DTD/svg11.dtd">
<svg version="1.1" id="final_Stryker_logo_RGB" xmlns="http://www.w3.org/2000/svg" xmlns:xlink="http://www.w3.org/1999/xlink"
	 x="0px" y="0px" width="127.5px" height="32px" viewBox="0 0 127.5 32" style="enable-background:new 0 0 127.5 32;"
	 xml:space="preserve">
<g id="XMLID_36_">
	<path id="XMLID_44_" d="M32.7,22.4c-1.5,0-2.5-0.4-2.5-1.7c0-0.7,0-9.6,0-9.6h6.4V6.4h-6.4V0h-4.6v6.4H9.5c0,0-6.6-0.3-6.6,6.3
		c0,6.6,6.6,6.3,6.6,6.3l7.8,0c1.4,0,1.6,1.1,1.6,1.7c0,0.5-0.3,1.7-1.6,1.7c-1.4,0-17.3,0-17.3,0V27h17.2c0,0,6.7,0.3,6.7-6.3
		c0-6.4-6.7-6.3-6.7-6.3l-7.8,0c-1.4,0-1.6-1.1-1.6-1.7c0-0.5,0.3-1.7,1.6-1.7c1.4,0,16.1,0,16.1,0l0,9.6c0,0-0.6,6.3,6.1,6.3h4.9
		v-4.7C36.6,22.4,32.9,22.4,32.7,22.4z"/>
	<path id="XMLID_43_" d="M48.8,15.7h4.7v-3c0-6.5-6.4-6.2-6.4-6.2l-8.7,0V27H43l0-15.8l3.9,0c1.2,0,1.8,0.7,1.8,2
		C48.8,14.2,48.8,15.7,48.8,15.7z"/>
	<path id="XMLID_60_" d="M122.9,15.7h4.7v-3c0-6.5-6.4-6.2-6.4-6.2l-8.7,0V27h4.7l0-15.8l3.9,0c1.2,0,1.8,0.7,1.8,2
		C122.9,14.2,122.9,15.7,122.9,15.7z"/>
	<path id="XMLID_42_" d="M53.1,27.3V32H59c0.3,0,2.2,0.1,3.8-1c2.2-1.3,3.3-4.7,3.6-5.6c0.3-1,5.7-19,5.7-19h-5.1l-4,14.6L58.8,6.4
		h-5.1l5.7,19l0.1,0.5c0.2,0.7-0.1,1.5-0.8,1.5H53.1z"/>
	<polygon id="XMLID_41_" points="78.1,14.2 78.1,0 73.4,0 73.4,27 78.1,27 78.1,21.2 80.7,17.9 85.8,27 91.2,27 84,14.3 90.6,6.4 
		84.5,6.4 	"/>
	<g id="XMLID_37_">
		<path id="XMLID_38_" d="M110.5,16.6c0-5.7-4.3-10.3-10.3-10.3c-6.4,0.1-10.4,4.7-10.4,10.4c0,5.6,4.3,10.4,10.1,10.4h6.7v-4.7
			c0,0-5.4,0-6.3,0c-2.4,0-5-1.7-5.4-3.9l15.4,0C110.5,17.9,110.5,17.3,110.5,16.6z M95,14.4c0.4-1.8,2.8-3.6,5.3-3.6
			c2.4,0,4.8,1.6,5.3,3.6L95,14.4z"/>
	</g>
</g>
<g>
</g>
<g>
</g>
<g>
</g>
<g>
</g>
<g>
</g>
<g>
</g>
</svg>
